<?xml version="1.0" encoding="utf-8"?>
<svg viewBox="0 0 500 430" xmlns="http://www.w3.org/2000/svg" xmlns:bx="https://boxy-svg.com">
  <defs>
    <bx:guide x="227.677" y="134.811" angle="-90"/>
    <clipPath id="clip0_9_1469">
      <rect width="580" height="580" fill="white"/>
    </clipPath>
  </defs>
  <g clip-path="url(#clip0_9_1469)" transform="matrix(0.863041, 0, 0, 0.863041, -0.51181, -70.577156)" style="">
    <path d="M21.5698 101.526H50.9323" stroke="#277BA2" stroke-width="5.852"/>
    <path d="M56.8042 101.526H115.532" stroke="white" stroke-width="5.852"/>
    <path d="M121.404 101.526H180.131" stroke="#FD7658" stroke-width="5.852"/>
    <path d="M186.003 101.526H293.669" stroke="#BECD5A" stroke-width="5.852"/>
    <path d="M56.8042 111.314H115.532" stroke="#FD7658" stroke-width="5.852"/>
    <path d="M121.412 111.304H150.774" stroke="#277BA2" stroke-width="5.852"/>
    <path d="M156.649 111.304L352.404 111.314" stroke="white" stroke-width="5.852"/>
    <path d="M56.8147 121.092L144.905 121.102" stroke="#BECD5A" stroke-width="5.852"/>
    <path d="M150.777 121.092L180.131 121.102" stroke="#FD7658" stroke-width="5.852"/>
    <path d="M186.011 121.092L295.235 121.102" stroke="#277BA2" stroke-width="5.852"/>
    <path d="M56.8147 130.88L144.905 130.89" stroke="white" stroke-width="5.852"/>
    <path d="M21.5776 130.88H50.9402" stroke="#FD7658" stroke-width="5.852"/>
    <path d="M150.777 130.88L209.504 130.89" stroke="#BECD5A" stroke-width="5.852"/>
    <path d="M166.428 140.677H244.731" stroke="#BECD5A" stroke-width="5.852"/>
    <path d="M21.5698 150.465H99.8724" stroke="#FD7658" stroke-width="5.852"/>
    <path d="M111.624 140.668H160.564" stroke="#277BA2" stroke-width="5.852"/>
    <path d="M56.8147 140.668L105.755 140.676" stroke="white" stroke-width="5.852"/>
    <path d="M21.5786 160.242H50.9411" stroke="#BECD5A" stroke-width="5.852"/>
    <path d="M56.813 160.242H115.541" stroke="#277BA2" stroke-width="5.852"/>
    <path d="M56.813 170.03H115.541" stroke="#FD7658" stroke-width="5.852"/>
    <path d="M121.413 170.03H150.775" stroke="white" stroke-width="5.852"/>
    <path d="M56.813 179.817H144.903" stroke="#BECD5A" stroke-width="5.852"/>
    <path d="M150.775 179.817H180.138" stroke="#FD7658" stroke-width="5.852"/>
    <path d="M186.012 179.817H293.677" stroke="#277BA2" stroke-width="5.852"/>
    <path d="M21.5786 189.605H50.9411" stroke="#FD7658" stroke-width="5.852"/>
    <path d="M146.862 199.393H244.74" stroke="#BECD5A" stroke-width="5.852"/>
    <path d="M111.625 199.393H140.988" stroke="#277BA2" stroke-width="5.852"/>
    <path d="M56.813 199.393H105.753" stroke="white" stroke-width="5.852"/>
    <path d="M21.5775 209.181H50.94" stroke="#277BA2" stroke-width="5.852"/>
    <path d="M56.8146 209.181H125.33" stroke="white" stroke-width="5.852"/>
    <path d="M131.202 209.181H170.352" stroke="#FD7658" stroke-width="5.852"/>
    <path d="M56.8146 218.969H125.33" stroke="#FD7658" stroke-width="5.852"/>
    <path d="M21.5775 228.757H153.322" stroke="#BECD5A" stroke-width="5.852"/>
    <path d="M159.194 228.757H188.556" stroke="#FD7658" stroke-width="5.852"/>
    <path d="M56.8146 238.545H144.905" stroke="#277BA2" stroke-width="5.852"/>
    <path d="M150.777 238.545H199.717" stroke="#BECD5A" stroke-width="5.852"/>
    <path d="M156.649 248.332H215.376" stroke="white" stroke-width="5.852"/>
    <path d="M121.414 248.332H150.777" stroke="#277BA2" stroke-width="5.852"/>
    <path d="M56.8146 248.332H115.542" stroke="#FD7658" stroke-width="5.852"/>
    <path d="M21.5775 258.12H115.54" stroke="white" stroke-width="5.852"/>
    <path d="M21.5781 267.909H50.9406" stroke="#277BA2" stroke-width="5.852"/>
    <path d="M56.8126 277.697H115.54" stroke="white" stroke-width="5.852"/>
    <path d="M121.412 277.697H150.775" stroke="#FD7658" stroke-width="5.852"/>
    <path d="M56.8126 287.484H115.54" stroke="#FD7658" stroke-width="5.852"/>
    <path d="M121.412 287.484H150.775" stroke="#277BA2" stroke-width="5.852"/>
    <path d="M56.8126 297.272H115.54" stroke="#BECD5A" stroke-width="5.852"/>
    <path d="M121.412 297.272H150.775" stroke="#FD7658" stroke-width="5.852"/>
    <path d="M56.8126 307.06H115.54" stroke="#277BA2" stroke-width="5.852"/>
    <path d="M121.412 307.06H150.775" stroke="#BECD5A" stroke-width="5.852"/>
    <path d="M56.8126 326.636H245.914" stroke="#BECD5A" stroke-width="5.852"/>
    <path d="M121.412 316.848H150.775" stroke="#277BA2" stroke-width="5.852"/>
    <path d="M21.5781 316.848H115.54" stroke="white" stroke-width="5.852"/>
    <path d="M56.8126 267.909H193.84" stroke="#FD7658" stroke-width="5.852"/>
    <path d="M21.5781 297.272L50.9406 297.231" stroke="white" stroke-width="5.852"/>
    <path d="M56.8126 336.423H105.753" stroke="#277BA2" stroke-width="5.852"/>
    <path d="M56.8126 346.211H115.54" stroke="#FD7658" stroke-width="5.852"/>
    <path d="M56.8126 355.999H95.9626" stroke="#BECD5A" stroke-width="5.852"/>
    <path d="M21.5781 365.787H50.9406" stroke="#FD7658" stroke-width="5.852"/>
    <path d="M156.649 375.574H234.952" stroke="#BECD5A" stroke-width="5.852"/>
    <path d="M121.412 375.574H150.775" stroke="#277BA2" stroke-width="5.852"/>
    <path d="M56.8126 375.574H115.54" stroke="white" stroke-width="5.852"/>
    <path d="M21.5781 385.362H50.9406" stroke="#277BA2" stroke-width="5.852"/>
    <path d="M56.8126 395.15H125.328" stroke="white" stroke-width="5.852"/>
    <path d="M131.2 395.15H179.358" stroke="#FD7658" stroke-width="5.852"/>
    <path d="M56.8126 404.938H115.54" stroke="#FD7658" stroke-width="5.852"/>
    <path d="M21.6722 424.578H80.3999" stroke="#277BA2" stroke-width="5.852"/>
    <path d="M21.5781 414.726H157.235" stroke="#BECD5A" stroke-width="5.852"/>
    <path d="M75 504.054L580.198 504.054L580.277 581.405H62.6852L75 504.054Z" fill="#B26A52"/>
    <path d="M76 504L68.0646 504L22 572.075L22.194 582L63.0122 581.832L76 504Z" fill="#B26A52"/>
    <path d="M22 579H580" stroke="#763F3A" stroke-width="8.43774"/>
    <path d="M376.95 496.177L475.492 498.483L436.955 288.987L377.919 285.818L376.95 496.177Z" fill="#4E514A"/>
    <path d="M387.811 316.417L396.248 327.847L425.302 324.137" stroke="#343632" stroke-width="1.68755" style="fill: none;"/>
    <path d="M392.726 494.511L398.041 451.016L393.789 368.495L379.897 435.735L377.009 491.853L392.726 494.511Z" fill="#343632"/>
    <path d="M435.889 242.1L451.455 257.982L460.628 262.278L528.465 287.985L537.327 295.482L560.843 354.103L570.386 498.686L555.049 511.638L472.757 511.467L461.969 519.311L432.06 521.273L427.336 499.528L420.416 484.347L436.963 480.086L450.202 480.086L436.474 413.893L426.89 312.12L434.317 292.411L427.134 240.779L435.889 242.1Z" fill="#6B89AE"/>
    <path d="M380.351 277.328L359.89 290.407L329.832 314.073L320.579 347.07L308.741 400.57L282.976 434.046L293.05 505.918L315.487 488.204L334.971 453.367L335.901 443.517L346.97 431.215L350.175 496.551L380.703 498.456L389.412 441.5L394.334 368.305L388.183 331.4L378.34 305.873L384.193 283.859L380.351 277.328Z" fill="#6B89AE"/>
    <path d="M451.426 257.995L464.079 292.065L460.102 346.173L446.878 333.978L433.491 323.916L429.756 314.649L455.703 335.62L458.559 294.118L451.426 257.995Z" fill="#587397"/>
    <path d="M377.585 281.909L373.713 282.842L349.5 326.543L351.771 348.358L371.205 338.181L378.501 340.449L371.374 334.099L355.668 339.426L354.836 326.848L377.585 281.909Z" fill="#587397"/>
    <path d="M513.676 456.225L526.514 459.719L543.255 468.912L532.337 458.196L517.501 453.649L506.494 450.572L497.767 408.467L492.528 365.242L487.251 400.464L491.274 457.82L450.19 480.209L455.811 480.166L507.813 456.466L517.941 464.443L526.778 472.694L513.676 456.225Z" fill="#587397"/>
    <path d="M347.358 494.742L346.769 399.472L352.73 379.563L353.055 420.772L355.971 495.388L347.358 494.742Z" fill="#587397"/>
    <path d="M453.988 479.379L471.575 491.502L472.931 511.424L555.149 511.604L570.398 498.706L561.787 368.341L564.294 498.841L552.845 506.973L479.544 507.777L476.024 489.637L453.988 479.379Z" fill="#587397"/>
    <path d="M312.962 486.828L327.591 456.07L335.026 436.763L349.509 428.109L337.658 441.78L335.583 446.95L334.667 453.992L315.397 488.625L293.379 506.131" fill="#587397"/>
    <path d="M304.393 542.723L390.782 528.674L391.077 520.591L263.938 513.879L304.393 542.723Z" fill="#4E514A"/>
    <path d="M304.246 542.798L390.801 528.68L391.079 520.595L303.567 534.237L304.246 542.798Z" fill="#343632"/>
    <path d="M142.438 424.54L155.288 532.105L304.44 542.813L297.001 429.715L142.438 424.54Z" fill="#1A1B19"/>
    <path d="M432.866 518.939L401.823 515.786L382.41 521.108L374.823 520.419L359.744 511.845L352.845 510.367L342.006 512.534L321.015 528.302L314.007 526.259L314.708 522.488L309.388 520.911L321.509 502.286L308.894 511.943L304.854 511.056L305.347 505.834L322.987 488.49L344.667 486.125L359.055 480.902L390.491 488.392L424.194 485.632L432.866 507.903L432.866 518.939Z" fill="#DFAA7D"/>
    <path d="M313.483 525.949L330.864 501.772" stroke="#C99671" stroke-width="1.68755"/>
    <path d="M320.459 527.76L341.675 511.831L352.348 509.543L359.481 510.841L375.279 520L382.377 520.139L401.921 514.819L431.866 517.821L432.195 508.028L423.233 486.045" stroke="#C99671" stroke-width="1.68755" style="fill: none;"/>
    <path d="M438.907 333.257L451.917 342.775L441.436 412.769L438.907 333.257Z" fill="#587397"/>
    <path d="M340.556 402.676L335.118 439.645L348.817 429.687L340.556 402.676Z" fill="#587397"/>
    <path d="M375.618 267.028L382.682 286.853L387.735 301.833L397.639 317.249L412.287 317.006L426.563 312.446L433.818 301.579L439.457 291.132L444.844 261.644L436.752 251.658L429.674 239.254L428.02 214.86L420.182 209.17L375.618 267.028Z" fill="#DFAA7D"/>
    <path d="M403.644 279.64L416.376 269.747L418.134 241.775L389.619 254.217L375.661 266.628L383.585 289.772L388.934 294.18L397.115 295.043L403.644 279.64Z" fill="#C99671"/>
    <path d="M337.749 184.899L336.753 197.411L337.112 201.389L342.85 210.013L346.131 229.604L351.415 238.751L352.524 246.447L361.847 263.325L364.564 269.128L370.853 271.58L383.309 270.034L419.65 243.942L421.221 216.8L409.881 175.262L390.506 154.025L339.181 155.968L337.749 184.899Z" fill="#DFAA7D"/>
    <path d="M357.352 197.561L357.018 198.936L357.352 197.561Z" fill="#C8926B"/>
    <path d="M360.409 260.595L364.869 256.896L361.612 240.487L350.468 231.049L352.862 216.66L356.45 205.528L351.715 200.72L340.707 197.635L337.09 201.575L342.793 210.019L344.256 227.644L352.342 246.484L360.409 260.595Z" fill="#C8926B"/>
    <path d="M395.236 159.647L382.869 187.835L394.42 192.141L391.596 214.581L397.655 223.627L389.884 237.703L392.286 263.599L419.655 243.939L421.971 209.843L405.201 170.372L395.236 159.647Z" fill="#EDB98B"/>
    <path d="M338.253 169.004L334.818 178.99L335.011 167.919L331.203 163.386L331.227 149.897L339.653 136.365L359.531 124.234L385.106 122.372L397.824 123.923L414.725 128.145L430.655 148.393L435.219 188.652L424.803 191.934L418.454 208.886L414.846 209.426L407.302 183.877L396.531 176.657L390.772 159.583L373.248 158.114L353.072 162.29L342.977 165.534L338.826 177.93L338.253 169.004Z" fill="#201C1A"/>
    <path d="M427.325 150.359L419.274 137.306L410.753 130.587L402.848 126.204" stroke="#080706" stroke-width="0.843774"/>
    <path d="M404.277 134.729L389.891 129.597L360.923 133.709" stroke="#080706" stroke-width="0.843774"/>
    <path d="M410.812 147.363L401.968 138.137L389.54 135.233" stroke="#080706" stroke-width="0.843774"/>
    <path d="M337.374 190.796L334.808 178.976L335.033 167.899L342.933 165.553L338.825 177.95L337.374 190.796Z" fill="#080706"/>
    <path d="M350.331 199.057L356.23 205.574L352.703 217.043L350.4 231.399L355.374 236.412L363.632 234.668" stroke="#A98160" stroke-width="0.843774" style="fill: none;"/>
    <path d="M367.719 221.377L372.207 227.892L371.533 231.765" stroke="#A98160" stroke-width="0.843774" style="fill: none;"/>
    <path d="M421.039 219.91L425.105 220.868L433.093 220.148L437.767 213.693L441.168 200.156L438.802 192.307L435.268 188.596L424.681 191.841L418.477 208.958L421.039 219.91Z" fill="#DFAA7D"/>
    <path d="M433.27 205.739L428.666 214.589L430.24 210.392L428.045 208.564L427.679 204.103L429.357 200.11" stroke="#A98160" stroke-width="0.843774" style="fill: none;"/>
    <path d="M374.24 257.52L370.317 256.338L364.839 256.901L361.745 259.195" stroke="#A98160" stroke-width="0.843774" style="fill: none;"/>
    <path d="M353.395 246.714L360.904 244.603L363.893 244.831L367.327 243.792L380.933 243.791L368.661 247.471L361.55 248.637L353.395 246.714Z" fill="#C77969"/>
    <path d="M353.393 246.713L361.471 248.471L368.625 247.473L379.803 243.766L380.983 243.765L373.525 249.542L361.147 251.407L353.393 246.713Z" fill="#CC877C"/>
    <path d="M361.746 252.473L372.027 250.992" stroke="#9F685B" stroke-width="0.843774"/>
    <path d="M353.082 201.401L341.969 199.523L337.099 201.494L336.659 197.394L341.384 193.801L348.024 195.573L353.082 201.401Z" fill="#201C1A"/>
    <path d="M342.031 206.847L344.888 203.278L349.267 202.316L353.826 205.343L342.031 206.847Z" fill="#A98160"/>
    <path d="M346.971 208.972C347.043 210.885 348.196 212.393 349.546 212.343C350.896 212.292 351.933 210.701 351.861 208.788C351.789 206.875 351.304 205.226 349.285 205.418C347.267 205.609 346.898 207.059 346.971 208.972Z" fill="#201C1A"/>
    <path d="M351.594 205.535L351.054 204.179L346.229 204.821L342.293 206.977L351.594 205.535Z" fill="#201C1A"/>
    <path d="M367.015 203.681L371.132 199.239L378.359 197.974L386.576 202.496L367.015 203.681Z" fill="#A98160"/>
    <path d="M371.344 203.298L371.592 201.775L378.059 201.154L383.093 202.551L371.344 203.298Z" fill="#201C1A"/>
    <path d="M372.939 206.163C373.271 208.186 374.621 209.649 375.954 209.43C377.287 209.212 378.1 207.394 377.768 205.372C377.437 203.349 375.978 202.289 374.351 202.326C372.725 202.362 372.607 204.141 372.939 206.163Z" fill="#201C1A"/>
    <path d="M363.813 197.872L377.353 193.988L394.659 191.994L382.865 187.838L371.447 190.483L365.306 192.752L363.813 197.872Z" fill="#201C1A"/>
  </g>
</svg>