<?xml version="1.0" encoding="utf-8"?>
<svg viewBox="0 0 450 400" xmlns="http://www.w3.org/2000/svg">
  <defs>
    <radialGradient id="paint0_radial_13_145" cx="0" cy="0" r="1" gradientUnits="userSpaceOnUse" gradientTransform="matrix(0, 29.6084, -198.134003, 0, 251.725845, 369.328827)">
      <stop stop-color="#4E211E"/>
      <stop offset="1" stop-color="#572D21"/>
    </radialGradient>
  </defs>
  <path d="M 22.115 31.875 L 44.594 31.875" stroke="#0EBEAD" stroke-width="5.05052"/>
  <path d="M 49.09 31.562 L 94.052 31.562 L 49.09 31.562 Z" fill="black"/>
  <path d="M 49.09 31.562 L 94.052 31.562" stroke="white" stroke-width="5.05052"/>
  <path d="M 98.548 31.562 L 143.509 31.562 L 98.548 31.562 Z" fill="black"/>
  <path d="M 98.548 31.562 L 143.509 31.562" stroke="#CF4427" stroke-width="5.05052"/>
  <path d="M 148.005 31.562 L 230.434 31.562 L 148.005 31.562 Z" fill="black"/>
  <path d="M 148.005 31.562 L 230.434 31.562" stroke="#B4C92A" stroke-width="5.05052"/>
  <path d="M 49.09 39.055 L 94.052 39.055 L 49.09 39.055 Z" fill="black"/>
  <path d="M 49.09 39.055 L 94.052 39.055" stroke="#CF4427" stroke-width="5.05052"/>
  <path d="M 98.554 39.36 L 121.033 39.36" stroke="#0EBEAD" stroke-width="5.05052"/>
  <path d="M 125.531 39.047 L 275.401 39.055 L 125.531 39.047 Z" fill="black"/>
  <path d="M 125.531 39.047 L 275.401 39.055" stroke="white" stroke-width="5.05052"/>
  <path d="M 49.098 46.541 L 116.54 46.548 L 49.098 46.541 Z" fill="black"/>
  <path d="M 49.098 46.541 L 116.54 46.548" stroke="#B4C92A" stroke-width="5.05052"/>
  <path d="M 121.035 46.541 L 143.509 46.548 L 121.035 46.541 Z" fill="black"/>
  <path d="M 121.035 46.541 L 143.509 46.548" stroke="#CF4427" stroke-width="5.05052"/>
  <path d="M 148.011 46.541 L 231.633 46.548" stroke="#0EBEAD" stroke-width="5.05052"/>
  <path d="M 49.098 54.034 L 116.54 54.042 L 49.098 54.034 Z" fill="black"/>
  <path d="M 49.098 54.034 L 116.54 54.042" stroke="white" stroke-width="5.05052"/>
  <path d="M 22.121 54.034 L 44.601 54.034 L 22.121 54.034 Z" fill="black"/>
  <path d="M 22.121 54.034 L 44.601 54.034" stroke="#CF4427" stroke-width="5.05052"/>
  <path d="M 121.035 54.034 L 165.997 54.042 L 121.035 54.034 Z" fill="black"/>
  <path d="M 121.035 54.034 L 165.997 54.042" stroke="#B4C92A" stroke-width="5.05052"/>
  <path d="M 133.018 61.534 L 192.967 61.534 L 133.018 61.534 Z" fill="black"/>
  <path d="M 133.018 61.534 L 192.967 61.534" stroke="#B4C92A" stroke-width="5.05052"/>
  <path d="M 22.115 69.028 L 82.063 69.028 L 22.115 69.028 Z" fill="black"/>
  <path d="M 22.115 69.028 L 82.063 69.028" stroke="#CF4427" stroke-width="5.05052"/>
  <path d="M 91.06 61.527 L 128.529 61.527" stroke="#0EBEAD" stroke-width="5.05052"/>
  <path d="M 49.098 61.527 L 86.567 61.533 L 49.098 61.527 Z" fill="black"/>
  <path d="M 49.098 61.527 L 86.567 61.533" stroke="white" stroke-width="5.05052"/>
  <path d="M 22.121 76.512 L 44.601 76.512 L 22.121 76.512 Z" fill="black"/>
  <path d="M 22.121 76.512 L 44.601 76.512" stroke="#B4C92A" stroke-width="5.05052"/>
  <path d="M 49.097 76.512 L 94.059 76.512" stroke="#0EBEAD" stroke-width="5.05052"/>
  <path d="M 49.097 84.006 L 94.059 84.006 L 49.097 84.006 Z" fill="black"/>
  <path d="M 49.097 84.006 L 94.059 84.006" stroke="#CF4427" stroke-width="5.05052"/>
  <path d="M 98.554 84.006 L 121.034 84.006 L 98.554 84.006 Z" fill="black"/>
  <path d="M 98.554 84.006 L 121.034 84.006" stroke="white" stroke-width="5.05052"/>
  <path d="M 49.097 91.498 L 116.538 91.498 L 49.097 91.498 Z" fill="black"/>
  <path d="M 49.097 91.498 L 116.538 91.498" stroke="#B4C92A" stroke-width="5.05052"/>
  <path d="M 121.034 91.498 L 143.514 91.498 L 121.034 91.498 Z" fill="black"/>
  <path d="M 121.034 91.498 L 143.514 91.498" stroke="#CF4427" stroke-width="5.05052"/>
  <path d="M 148.012 91.498 L 230.44 91.498" stroke="#0EBEAD" stroke-width="5.05052"/>
  <path d="M 22.121 98.991 L 44.601 98.991 L 22.121 98.991 Z" fill="black"/>
  <path d="M 22.121 98.991 L 44.601 98.991" stroke="#CF4427" stroke-width="5.05052"/>
  <path d="M 118.038 106.485 L 192.974 106.485 L 118.038 106.485 Z" fill="black"/>
  <path d="M 118.038 106.485 L 192.974 106.485" stroke="#B4C92A" stroke-width="5.05052"/>
  <path d="M 91.061 106.485 L 113.541 106.485" stroke="#0EBEAD" stroke-width="5.05052"/>
  <path d="M 49.097 106.485 L 86.565 106.485 L 49.097 106.485 Z" fill="black"/>
  <path d="M 49.097 106.485 L 86.565 106.485" stroke="white" stroke-width="5.05052"/>
  <path d="M 22.12 113.978 L 44.6 113.978" stroke="#0EBEAD" stroke-width="5.05052"/>
  <path d="M 49.098 113.978 L 101.553 113.978 L 49.098 113.978 Z" fill="black"/>
  <path d="M 49.098 113.978 L 101.553 113.978" stroke="white" stroke-width="5.05052"/>
  <path d="M 106.049 113.978 L 136.022 113.978 L 106.049 113.978 Z" fill="black"/>
  <path d="M 106.049 113.978 L 136.022 113.978" stroke="#CF4427" stroke-width="5.05052"/>
  <path d="M 49.098 121.471 L 101.553 121.471 L 49.098 121.471 Z" fill="black"/>
  <path d="M 49.098 121.471 L 101.553 121.471" stroke="#CF4427" stroke-width="5.05052"/>
  <path d="M 22.12 128.965 L 122.984 128.965 L 22.12 128.965 Z" fill="black"/>
  <path d="M 22.12 128.965 L 122.984 128.965" stroke="#B4C92A" stroke-width="5.05052"/>
  <path d="M 127.48 128.965 L 149.959 128.965 L 127.48 128.965 Z" fill="black"/>
  <path d="M 127.48 128.965 L 149.959 128.965" stroke="#CF4427" stroke-width="5.05052"/>
  <path d="M 49.098 136.458 L 116.54 136.458" stroke="#0EBEAD" stroke-width="5.05052"/>
  <path d="M 121.035 136.458 L 158.504 136.458 L 121.035 136.458 Z" fill="black"/>
  <path d="M 121.035 136.458 L 158.504 136.458" stroke="#B4C92A" stroke-width="5.05052"/>
  <path d="M 125.531 143.951 L 170.493 143.951 L 125.531 143.951 Z" fill="black"/>
  <path d="M 125.531 143.951 L 170.493 143.951" stroke="white" stroke-width="5.05052"/>
  <path d="M 98.555 143.951 L 121.035 143.951" stroke="#0EBEAD" stroke-width="5.05052"/>
  <path d="M 49.098 143.951 L 94.06 143.951 L 49.098 143.951 Z" fill="black"/>
  <path d="M 49.098 143.951 L 94.06 143.951" stroke="#CF4427" stroke-width="5.05052"/>
  <path d="M 22.12 151.444 L 94.058 151.444 L 22.12 151.444 Z" fill="black"/>
  <path d="M 22.12 151.444 L 94.058 151.444" stroke="white" stroke-width="5.05052"/>
  <path d="M 22.121 158.938 L 44.601 158.938" stroke="#0EBEAD" stroke-width="5.05052"/>
  <path d="M 49.096 166.431 L 94.058 166.431 L 49.096 166.431 Z" fill="black"/>
  <path d="M 49.096 166.431 L 94.058 166.431" stroke="white" stroke-width="5.05052"/>
  <path d="M 98.554 166.431 L 121.034 166.431 L 98.554 166.431 Z" fill="black"/>
  <path d="M 98.554 166.431 L 121.034 166.431" stroke="#CF4427" stroke-width="5.05052"/>
  <path d="M 49.096 173.924 L 94.058 173.924 L 49.096 173.924 Z" fill="black"/>
  <path d="M 49.096 173.924 L 94.058 173.924" stroke="#CF4427" stroke-width="5.05052"/>
  <path d="M 98.554 173.924 L 121.034 173.924" stroke="#0EBEAD" stroke-width="5.05052"/>
  <path d="M 49.096 181.417 L 94.058 181.417 L 49.096 181.417 Z" fill="black"/>
  <path d="M 49.096 181.417 L 94.058 181.417" stroke="#B4C92A" stroke-width="5.05052"/>
  <path d="M 98.554 181.417 L 121.034 181.417 L 98.554 181.417 Z" fill="black"/>
  <path d="M 98.554 181.417 L 121.034 181.417" stroke="#CF4427" stroke-width="5.05052"/>
  <path d="M 49.096 188.911 L 94.058 188.911" stroke="#0EBEAD" stroke-width="5.05052"/>
  <path d="M 98.554 188.911 L 121.034 188.911 L 98.554 188.911 Z" fill="black"/>
  <path d="M 98.554 188.911 L 121.034 188.911" stroke="#B4C92A" stroke-width="5.05052"/>
  <path d="M 49.096 203.897 L 193.873 203.897 L 49.096 203.897 Z" fill="black"/>
  <path d="M 49.096 203.897 L 193.873 203.897" stroke="#B4C92A" stroke-width="5.05052"/>
  <path d="M 98.554 196.404 L 121.034 196.404" stroke="#0EBEAD" stroke-width="5.05052"/>
  <path d="M 22.121 196.404 L 94.058 196.404 L 22.121 196.404 Z" fill="black"/>
  <path d="M 22.121 196.404 L 94.058 196.404" stroke="white" stroke-width="5.05052"/>
  <path d="M 49.096 158.938 L 154.005 158.938 L 49.096 158.938 Z" fill="black"/>
  <path d="M 49.096 158.938 L 154.005 158.938" stroke="#CF4427" stroke-width="5.05052"/>
  <path d="M 22.121 181.417 L 44.601 181.386 L 22.121 181.417 Z" fill="black"/>
  <path d="M 22.121 181.417 L 44.601 181.386" stroke="white" stroke-width="5.05052"/>
  <path d="M 49.096 211.39 L 86.565 211.39" stroke="#0EBEAD" stroke-width="5.05052"/>
  <path d="M 49.096 218.883 L 94.058 218.883 L 49.096 218.883 Z" fill="black"/>
  <path d="M 49.096 218.883 L 94.058 218.883" stroke="#CF4427" stroke-width="5.05052"/>
  <path d="M 49.096 226.376 L 79.07 226.376 L 49.096 226.376 Z" fill="black"/>
  <path d="M 49.096 226.376 L 79.07 226.376" stroke="#B4C92A" stroke-width="5.05052"/>
  <path d="M 22.121 233.87 L 44.601 233.87 L 22.121 233.87 Z" fill="black"/>
  <path d="M 22.121 233.87 L 44.601 233.87" stroke="#CF4427" stroke-width="5.05052"/>
  <path d="M 125.531 241.362 L 185.48 241.362 L 125.531 241.362 Z" fill="black"/>
  <path d="M 125.531 241.362 L 185.48 241.362" stroke="#B4C92A" stroke-width="5.05052"/>
  <path d="M 98.554 241.362 L 121.034 241.362" stroke="#0EBEAD" stroke-width="5.05052"/>
  <path d="M 49.096 241.362 L 94.058 241.362 L 49.096 241.362 Z" fill="black"/>
  <path d="M 49.096 241.362 L 94.058 241.362" stroke="white" stroke-width="5.05052"/>
  <path d="M 22.121 248.856 L 44.601 248.856" stroke="#0EBEAD" stroke-width="5.05052"/>
  <path d="M 49.096 256.349 L 101.552 256.349 L 49.096 256.349 Z" fill="black"/>
  <path d="M 49.096 256.349 L 101.552 256.349" stroke="white" stroke-width="5.05052"/>
  <path d="M 106.047 256.349 L 142.917 256.349 L 106.047 256.349 Z" fill="black"/>
  <path d="M 106.047 256.349 L 142.917 256.349" stroke="#CF4427" stroke-width="5.05052"/>
  <path d="M 49.096 263.842 L 94.058 263.842 L 49.096 263.842 Z" fill="black"/>
  <path d="M 49.096 263.842 L 94.058 263.842" stroke="#CF4427" stroke-width="5.05052"/>
  <path d="M 22.193 278.878 L 67.155 278.878" stroke="#0EBEAD" stroke-width="5.05052"/>
  <path d="M 22.121 271.335 L 125.98 271.335 L 22.121 271.335 Z" fill="black"/>
  <path d="M 22.121 271.335 L 125.98 271.335" stroke="#B4C92A" stroke-width="5.05052"/>
  <path d="M 109.601 339.721 L 449.8 339.721 L 449.601 393.375 L 0.03 392.875 L 109.601 339.721 Z" fill="url(#paint0_radial_13_145)"/>
  <path d="M 22.601 396.375 L 449.648 396.375 L 22.601 396.375 Z" fill="black"/>
  <path d="M 0.008 396.375 L 449.648 396.375" stroke="#36161B" stroke-width="7.28212"/>
  <path d="M 294.194 333.691 L 369.637 335.457 L 340.133 175.075 L 294.935 172.649 L 294.194 333.691 Z" fill="#CF4427"/>
  <path d="M 302.509 196.074 L 308.968 204.825 L 331.212 201.984" stroke-width="1.45642" stroke="#651A1B" style="fill: none;"/>
  <path d="M 306.272 332.416 L 310.341 299.118 L 307.086 235.943 L 296.45 287.419 L 294.239 330.381 L 306.272 332.416 Z" fill="#651A1B"/>
  <path d="M 339.317 139.18 L 351.235 151.338 L 358.257 154.627 L 410.193 174.307 L 416.978 180.047 L 434.982 224.925 L 442.288 335.612 L 430.546 345.527 L 367.543 345.396 L 359.284 351.401 L 336.386 352.903 L 332.769 336.256 L 327.471 324.634 L 340.14 321.372 L 350.275 321.372 L 339.765 270.698 L 332.428 192.784 L 338.114 177.696 L 332.614 138.168 L 339.317 139.18 Z" fill="#2A534F"/>
  <path d="M 296.797 166.149 L 281.132 176.162 L 258.12 194.279 L 251.036 219.541 L 241.973 260.498 L 222.247 286.126 L 229.96 341.148 L 247.138 327.587 L 262.055 300.917 L 262.767 293.377 L 271.241 283.959 L 271.241 333.875 L 299.101 335.875 L 304.101 298.875 L 307.503 235.797 L 302.794 207.544 L 295.258 188.002 L 299.739 171.149 L 296.797 166.149 Z" fill="#2A534F"/>
  <path d="M 295.101 187.875 L 299.101 173.875 L 302.101 183.375 L 300.601 191.375 L 302.101 206.375 L 295.101 187.875 Z" fill="#651A1B"/>
  <path d="M 351.212 151.348 L 360.9 177.431 L 357.855 218.854 L 347.73 209.518 L 337.481 201.815 L 334.622 194.72 L 354.487 210.775 L 356.673 179.003 L 351.212 151.348 Z" fill="#221A25"/>
  <path d="M 294.68 169.656 L 291.715 170.371 L 273.178 203.826 L 274.917 220.527 L 289.795 212.736 L 295.381 214.472 L 289.925 209.611 L 277.9 213.689 L 277.263 204.06 L 294.68 169.656 Z" fill="#221A25"/>
  <path d="M 398.871 303.105 L 408.7 305.78 L 421.517 312.818 L 413.158 304.614 L 401.799 301.133 L 393.372 298.778 L 386.691 266.544 L 382.68 233.452 L 378.64 260.417 L 381.72 304.326 L 350.266 321.467 L 354.57 321.434 L 394.382 303.29 L 402.136 309.397 L 408.902 315.713 L 398.871 303.105 Z" fill="#221A25"/>
  <path d="M 268.601 286.833 L 268.601 265.875 L 270.101 253.875 L 274.101 235.875 L 272.101 277.833 L 271.601 284.333 L 268.601 286.833 Z" fill="#221A25"/>
  <path d="M 353.174 320.831 L 366.638 330.112 L 367.677 345.364 L 430.623 345.501 L 442.297 335.627 L 435.705 235.825 L 437.624 335.731 L 428.859 341.956 L 372.739 342.572 L 370.045 328.684 L 353.174 320.831 Z" fill="#221A25"/>
  <path d="M 245.204 326.534 L 256.404 302.987 L 262.097 288.206 L 271.101 283.875 L 264.112 292.047 L 262.523 296.005 L 261.822 301.396 L 247.069 327.909 L 230.212 341.311" fill="#221A25"/>
  <path d="M 238.644 369.325 L 304.783 358.57 L 305.009 352.382 L 207.672 347.243 L 238.644 369.325 Z" fill="#4E514A"/>
  <path d="M 238.531 369.382 L 304.798 358.574 L 305.011 352.385 L 238.012 362.828 L 238.531 369.382 Z" fill="#343632"/>
  <path d="M 114.651 278.849 L 124.489 361.196 L 238.68 369.394 L 232.985 282.811 L 114.651 278.849 Z" fill="#1A1B19"/>
  <path d="M 227.601 282.875 L 234.601 369.375 L 238.601 369.375 L 233.101 282.875 L 227.601 282.875 Z" fill="#343632"/>
  <path d="M 337.003 351.117 L 313.236 348.703 L 298.374 352.777 L 292.565 352.25 L 281.021 345.686 L 275.739 344.554 L 267.441 346.213 L 251.37 358.285 L 246.004 356.721 L 246.541 353.834 L 242.468 352.626 L 251.748 338.368 L 242.09 345.761 L 238.997 345.082 L 239.374 341.084 L 252.88 327.806 L 269.478 325.996 L 280.493 321.997 L 304.561 327.731 L 330.364 325.618 L 337.003 342.668 L 337.003 351.117 Z" fill="#E0A166"/>
  <path d="M 245.603 356.483 L 258.91 337.974 L 245.603 356.483 Z" fill="black"/>
  <path d="M 245.603 356.483 L 258.91 337.974" stroke="#873D30" stroke-width="1.45642"/>
  <path d="M 250.944 357.87 L 267.187 345.675 L 275.358 343.923 L 280.819 344.917 L 292.914 351.929 L 298.349 352.035 L 313.311 347.963 L 336.489 350.375 L 336.489 342.764 L 329.601 325.375" stroke="#873D30" stroke-width="1.45642" style="fill: none;"/>
  <path d="M 341.628 208.966 L 351.588 216.253 L 343.564 269.837 L 341.628 208.966 Z" fill="#221A25"/>
  <path d="M 266.33 262.11 L 262.167 290.412 L 271.601 282.875 L 266.33 262.11 Z" fill="#221A25"/>
  <path d="M 293.174 158.264 L 298.582 173.441 L 302.451 184.909 L 310.033 196.711 L 321.248 196.525 L 332.177 193.034 L 337.732 184.715 L 342.049 176.717 L 346.173 154.142 L 339.978 146.497 L 334.559 137.001 L 333.293 118.326 L 327.292 113.97 L 293.174 158.264 Z" fill="#D48855"/>
  <path d="M 314.631 167.919 L 324.378 160.345 L 325.724 138.931 L 303.893 148.456 L 293.101 157.875 L 299.273 175.676 L 303.369 179.05 L 309.632 179.711 L 314.631 167.919 Z" fill="#B25F41"/>
  <path d="M 264.181 95.389 L 263.419 104.968 L 263.694 108.013 L 268.087 114.615 L 270.599 129.613 L 274.644 136.616 L 275.493 142.508 L 282.631 155.429 L 284.711 159.871 L 289.526 161.749 L 299.062 160.565 L 326.885 140.59 L 328.087 119.811 L 319.406 88.011 L 304.572 71.753 L 265.278 73.24 L 264.181 95.389 Z" fill="#E0A166"/>
  <path d="M 281.53 153.339 L 284.944 150.507 L 282.451 137.945 L 273.919 130.72 L 275.752 119.704 L 278.499 111.181 L 274.874 107.501 L 266.446 105.139 L 263.677 108.155 L 268.043 114.62 L 269.163 128.113 L 275.354 142.536 L 281.53 153.339 Z" fill="#B25F41"/>
  <path d="M 308.193 76.057 L 298.725 97.636 L 307.569 100.933 L 305.407 118.112 L 310.045 125.037 L 304.096 135.814 L 305.935 155.639 L 326.888 140.588 L 328.662 114.485 L 315.823 84.268 L 308.193 76.057 Z" fill="#EBB073"/>
  <path d="M 264.567 83.22 L 261.937 90.865 L 262.085 82.389 L 259.17 78.919 L 259.188 68.593 L 265.639 58.233 L 280.858 48.946 L 300.438 47.521 L 310.175 48.708 L 323.114 51.94 L 335.31 67.441 L 338.804 98.262 L 330.83 100.774 L 325.969 113.752 L 323.207 114.166 L 317.431 94.606 L 309.185 89.079 L 304.776 76.008 L 291.359 74.883 L 275.913 78.08 L 268.184 80.564 L 265.006 90.053 L 264.567 83.22 Z" fill="#201C1A"/>
  <path d="M 332.761 68.946 L 326.597 58.954 L 320.073 53.81 L 314.021 50.454" style="fill: none;"/>
  <path d="M 332.761 68.946 L 326.597 58.954 L 320.073 53.81 L 314.021 50.454" stroke="#080706" stroke-width="0.728212" style="fill: none;"/>
  <path d="M 315.115 56.981 L 304.101 53.052 L 281.923 56.2" stroke="#080706" stroke-width="0.728212" style="fill: none;"/>
  <path d="M 320.118 66.653 L 313.347 59.59 L 303.832 57.366" style="fill: none;"/>
  <path d="M 320.118 66.653 L 313.347 59.59 L 303.832 57.366" stroke="#080706" stroke-width="0.728212" style="fill: none;"/>
  <path d="M 263.894 99.903 L 261.93 90.854 L 262.102 82.374 L 268.15 80.578 L 265.005 90.069 L 263.894 99.903 Z" fill="#080706"/>
  <path d="M 273.814 106.228 L 278.33 111.217 L 275.63 119.997 L 273.867 130.988 L 277.675 134.825 L 283.997 133.49" stroke="#873D30" stroke-width="0.728212" style="fill: none;"/>
  <path d="M 287.126 123.315 L 290.562 128.303 L 290.046 131.268" stroke="#873D30" stroke-width="0.728212" style="fill: none;"/>
  <path d="M 327.948 122.192 L 331.061 122.925 L 337.177 122.374 L 340.755 117.432 L 343.359 107.069 L 341.547 101.06 L 338.842 98.219 L 330.736 100.703 L 325.987 113.807 L 327.948 122.192 Z" fill="#E0A166"/>
  <path d="M 337.312 111.343 L 333.787 118.118 L 334.992 114.905 L 333.312 113.506 L 333.032 110.091 L 334.316 107.034" stroke="#883F30" stroke-width="0.728212" style="fill: none;"/>
  <path d="M 292.119 150.985 L 289.115 150.08 L 284.921 150.511 L 282.553 152.267" stroke="#873D30" stroke-width="0.728212" style="fill: none;"/>
  <path d="M 276.16 142.712 L 281.909 141.096 L 284.197 141.271 L 286.826 140.475 L 297.243 140.474 L 287.848 143.292 L 282.403 144.184 L 276.16 142.712 Z" fill="#A64A43"/>
  <path d="M 276.158 142.711 L 282.343 144.057 L 287.82 143.293 L 296.378 140.455 L 297.281 140.454 L 291.571 144.877 L 282.095 146.305 L 276.158 142.711 Z" fill="#D85E43"/>
  <path d="M 282.553 147.121 L 290.425 145.987" stroke="#883F30" stroke-width="0.728212"/>
  <path d="M 275.92 108.022 L 267.412 106.584 L 263.684 108.093 L 263.347 104.955 L 266.964 102.204 L 272.048 103.56 L 275.92 108.022 Z" fill="#201C1A"/>
  <path d="M 267.46 112.191 L 269.647 109.459 L 272.999 108.722 L 276.49 111.04 L 267.46 112.191 Z" fill="#883F30"/>
  <path d="M 271.242 113.818 C 271.297 115.283 272.18 116.437 273.213 116.399 C 274.247 116.36 275.041 115.142 274.985 113.677 C 274.93 112.213 274.559 110.95 273.013 111.097 C 271.468 111.244 271.186 112.354 271.242 113.818 Z" fill="#201C1A"/>
  <path d="M 274.781 111.187 L 274.368 110.149 L 270.674 110.64 L 267.66 112.291 L 274.781 111.187 Z" fill="#201C1A"/>
  <path d="M 286.587 109.767 L 289.739 106.367 L 295.272 105.398 L 301.563 108.86 L 286.587 109.767 Z" fill="#B25F41"/>
  <path d="M 289.902 109.474 L 290.091 108.308 L 295.043 107.833 L 298.897 108.902 L 289.902 109.474 Z" fill="#201C1A"/>
  <path d="M 291.123 111.668 C 291.377 113.216 292.411 114.336 293.431 114.169 C 294.452 114.002 295.074 112.61 294.82 111.062 C 294.566 109.513 293.449 108.702 292.204 108.73 C 290.959 108.758 290.869 110.12 291.123 111.668 Z" fill="#201C1A"/>
  <path d="M 284.136 105.32 L 294.502 102.347 L 307.752 100.82 L 298.722 97.639 L 289.98 99.664 L 285.279 101.401 L 284.136 105.32 Z" fill="#201C1A"/>
</svg>