<?xml version="1.0" encoding="utf-8"?>
<svg width="627" height="617" viewBox="0 0 627 617" fill="none" xmlns="http://www.w3.org/2000/svg">
  <path d="M343.581 547.771L487.954 551.15L431.494 244.235L345.001 239.592L343.581 547.771Z" fill="#EC5F4D"/>
  <path d="M359.493 284.42L371.854 301.165L414.421 295.73" stroke="#651A1B" style=""/>
  <path d="M366.694 545.33L374.481 481.609L368.252 360.715L347.899 459.223L343.668 541.436L366.694 545.33Z" fill="#651A1B"/>
  <path d="M429.932 175.544L452.737 198.811L466.176 205.105L565.564 242.766L578.547 253.749L613 339.63L626.982 551.446L604.512 570.421L483.946 570.171L468.141 581.662L424.322 584.537L417.401 552.68L407.262 530.439L431.505 524.197H450.901L430.789 427.223L416.747 278.124L427.628 249.25L417.105 173.609L429.932 175.544Z" fill="#2A534F"/>
  <path d="M348.564 227.153L318.587 246.314L274.549 280.985L260.993 329.327L243.649 407.705L205.901 456.748L220.66 562.041L253.532 536.09L282.078 485.053L283.441 470.623L299.658 452.6V548.122L352.972 551.949L362.54 481.144L369.05 360.436L360.038 306.37L345.618 268.972L354.193 236.721L348.564 227.153Z" fill="#2A534F"/>
  <path d="M345.318 268.73L352.972 241.939L358.713 260.118L355.843 275.428L358.713 304.132L345.318 268.73Z" fill="#651A1B"/>
  <path d="M452.695 198.831L471.233 248.744L465.406 328.013L446.032 310.147L426.419 295.406L420.947 281.83L458.961 312.553L463.146 251.752L452.695 198.831Z" fill="#221A25"/>
  <path d="M344.511 233.865L338.838 235.232L303.364 299.255L306.691 331.214L335.164 316.304L345.853 319.627L335.412 310.324L312.401 318.128L311.182 299.701L344.511 233.865Z" fill="#221A25"/>
  <path d="M543.897 489.24L562.706 494.359L587.233 507.827L571.237 492.128L549.501 485.467L533.375 480.959L520.589 419.274L512.914 355.949L505.182 407.55L511.076 491.577L450.885 524.377L459.12 524.314L535.308 489.594L550.146 501.28L563.093 513.368L543.897 489.24Z" fill="#221A25"/>
  <path d="M294.606 458.102V417.995L297.477 395.031L305.131 360.585L301.304 440.88L300.347 453.318L294.606 458.102Z" fill="#221A25"/>
  <path d="M456.449 523.162L482.216 540.922L484.202 570.108L604.659 570.372L627 551.476L614.384 360.49L618.057 551.674L601.283 563.587L493.891 564.765L488.734 538.19L456.449 523.162Z" fill="#221A25"/>
  <path d="M249.833 534.075L271.266 489.014L282.159 460.729L299.39 452.44L286.015 468.079L282.975 475.653L281.633 485.97L253.401 536.707L221.142 562.354" fill="#221A25"/>
  <path d="M237.279 615.962L363.846 595.38L364.279 583.538L178.009 573.705L237.279 615.962Z" fill="#4E514A"/>
  <path d="M237.064 616.072L363.874 595.389L364.282 583.544L236.069 603.53L237.064 616.072Z" fill="#343632"/>
  <path d="M0 442.822L18.8264 600.406L237.347 616.093L226.449 450.403L0 442.822Z" fill="#221A25"/>
  <path d="M216.146 450.526L229.542 616.057L237.196 616.057L226.671 450.526L216.146 450.526Z" fill="#343632"/>
  <path d="M425.503 581.118L380.022 576.499L351.581 584.295L340.465 583.286L318.373 570.725L308.265 568.56L292.385 571.734L261.631 594.835L251.364 591.842L252.391 586.317L244.597 584.007L262.355 556.721L243.873 570.869L237.954 569.569L238.676 561.919L264.521 536.51L296.284 533.045L317.363 525.393L363.42 536.366L412.798 532.323L425.503 564.95V581.118Z" fill="#E0A166"/>
  <path d="M252 586.42L277.465 551L252 586.42Z" fill="black"/>
  <path d="M252 586.42L277.465 551" stroke="#873D30" style=""/>
  <path d="M261.797 594.5L292.88 571.164L308.517 567.812L318.5 570.5L340.5 583L351.5 584L380 576L425 581L425.5 565.592L412.318 532.316" stroke="#873D30" style="stroke-width: 3px;"/>
  <path d="M434.354 309.091L453.414 323.035L438.059 425.577L434.354 309.091Z" fill="#221A25"/>
  <path d="M290.261 410.79L282.294 464.95L300.347 450.526L290.261 410.79Z" fill="#221A25"/>
  <path d="M341.629 212.065L351.979 241.109L359.382 263.054L373.892 285.639L395.353 285.283L416.268 278.603L426.898 262.682L435.159 247.377L443.052 204.177L431.196 189.547L420.826 171.375L418.403 135.638L406.92 127.302L341.629 212.065Z" fill="#D48855"/>
  <path d="M382.69 230.541L401.344 216.048L403.92 175.068L362.143 193.296L341.49 211.32L353.302 245.384L361.139 251.842L373.125 253.107L382.69 230.541Z" fill="#B25F41"/>
  <path d="M286.148 91.744L284.689 110.074L285.215 115.902L293.622 128.536L298.429 157.237L306.17 170.638L307.795 181.913L321.454 206.639L325.435 215.141L334.649 218.733L352.898 216.468L406.141 178.243L408.442 138.479L391.828 77.6256L363.442 46.5131L288.246 49.3596L286.148 91.744Z" fill="#E0A166"/>
  <path d="M319.347 202.64L325.881 197.221L319.677 173.707L304.782 159.354L308.29 138.274L313.546 121.966L306.609 114.922L290.481 110.402L285.182 116.175L293.538 128.545L295.681 154.366L307.528 181.967L319.347 202.64Z" fill="#B25F41"/>
  <path d="M370.372 54.7501L352.253 96.046L369.176 102.354L365.039 135.229L373.916 148.482L362.531 169.103L366.05 207.041L406.148 178.239L409.541 128.288L384.972 70.4624L370.372 54.7501Z" fill="#EBB073"/>
  <path d="M286.887 68.4576L281.854 83.0872L282.137 66.868L276.558 60.2271L276.593 40.4655L288.938 20.641L318.061 2.86885L355.531 0.140991L374.164 2.41322L398.925 8.59853L422.264 38.2622L428.951 97.2422L413.69 102.05L404.389 126.885L399.103 127.676L388.05 90.2467L372.269 79.6693L363.832 54.6557L338.158 52.5036L308.598 58.6215L293.808 63.374L287.726 81.5343L286.887 68.4576Z" fill="#211814"/>
  <path d="M417.385 41.1427L405.589 22.0198L393.105 12.1764L381.524 5.75525" stroke="#080706" stroke-width="0.728212"/>
  <path d="M383.618 18.2443L362.541 10.7258L320.1 16.75" stroke="#080706" stroke-width="0.728212"/>
  <path d="M393.192 36.7535L380.234 23.2373L362.026 18.9829" stroke="#080706" stroke-width="0.728212"/>
  <path d="M285.599 100.383L281.84 83.067L282.169 66.839L293.744 63.4021L287.725 81.5639L285.599 100.383Z" fill="#080706"/>
  <path d="M304.582 112.486L313.225 122.033L308.057 138.835L304.683 159.867L311.97 167.211L324.069 164.656" stroke="#873D30" style=""/>
  <path d="M330.057 145.185L336.632 154.729L335.645 160.403" stroke="#873D30" style=""/>
  <path d="M408.175 143.035L414.133 144.439L425.836 143.384L432.683 133.927L437.666 114.095L434.2 102.596L429.022 97.1597L413.511 101.914L404.422 126.99L408.175 143.035Z" fill="#E0A166"/>
  <path d="M426.095 122.274L419.35 135.24L421.656 129.091L418.44 126.413L417.904 119.878L420.362 114.028" stroke="#883F30" style=""/>
  <path d="M339.611 198.135L333.863 196.403L325.838 197.228L321.305 200.588" stroke="#873D30" style=""/>
  <path d="M309.071 182.304L320.072 179.211L324.451 179.545L329.483 178.023L349.417 178.021L331.437 183.413L321.019 185.121L309.071 182.304Z" fill="#A64A43"/>
  <path d="M309.068 182.302L320.903 184.878L331.385 183.416L347.762 177.985L349.49 177.984L338.564 186.447L320.429 189.179L309.068 182.302Z" fill="#D85E43"/>
  <path d="M321.306 190.741L336.369 188.572" stroke="#883F30" style=""/>
  <path d="M308.612 115.92L292.331 113.168L285.196 116.056L284.551 110.049L291.474 104.785L301.202 107.381L308.612 115.92Z" fill="#201C1A"/>
  <path d="M292.422 123.898L296.607 118.67L303.023 117.26L309.702 121.695L292.422 123.898Z" fill="#883F30"/>
  <path d="M299.659 127.012C299.765 129.814 301.454 132.023 303.432 131.95C305.41 131.875 306.929 129.545 306.824 126.742C306.718 123.939 306.008 121.524 303.05 121.805C300.093 122.085 299.552 124.209 299.659 127.012Z" fill="#201C1A"/>
  <path d="M306.433 121.976L305.642 119.99L298.573 120.93L292.806 124.089L306.433 121.976Z" fill="#201C1A"/>
  <path d="M329.025 119.26L335.057 112.752L345.645 110.899L357.684 117.524L329.025 119.26Z" fill="#B25F41"/>
  <path d="M335.368 118.699L335.731 116.468L345.206 115.558L352.581 117.605L335.368 118.699Z" fill="#201C1A"/>
  <path d="M337.705 122.896C338.192 125.86 340.17 128.003 342.122 127.682C344.075 127.363 345.267 124.699 344.78 121.737C344.295 118.774 342.158 117.221 339.774 117.275C337.392 117.328 337.219 119.934 337.705 122.896Z" fill="#201C1A"/>
  <path d="M324.334 110.75L344.172 105.06L369.527 102.138L352.247 96.0497L335.519 99.9247L326.522 103.249L324.334 110.75Z" fill="#201C1A"/>
</svg>